<svg xmlns="http://www.w3.org/2000/svg" viewBox="0 0 600 600" width="100%" height="100%">
  <defs>
    <linearGradient id="bgGrad" x1="0%" y1="0%" x2="0%" y2="100%">
      <stop offset="0%" stop-color="#faf5ff"/>
      <stop offset="100%" stop-color="#ffffff"/>
    </linearGradient>
    <linearGradient id="skin" x1="0%" y1="0%" x2="0%" y2="100%">
      <stop offset="0%" stop-color="#fed7aa"/>
      <stop offset="100%" stop-color="#fba86c"/>
    </linearGradient>
    <linearGradient id="shirt" x1="0%" y1="0%" x2="0%" y2="100%">
      <stop offset="0%" stop-color="#c4b5fd"/>
      <stop offset="100%" stop-color="#7c3aed"/>
    </linearGradient>
    <linearGradient id="pants" x1="0%" y1="0%" x2="0%" y2="100%">
      <stop offset="0%" stop-color="#a7f3d0"/>
      <stop offset="100%" stop-color="#059669"/>
    </linearGradient>
    <filter id="softShadow" x="-20%" y="-20%" width="140%" height="140%">
      <feDropShadow dx="0" dy="8" stdDeviation="12" flood-color="#4c1d95" flood-opacity="0.08"/>
    </filter>
  </defs>

  <!-- Clean Minimalist Background -->
  <rect width="600" height="600" rx="32" fill="url(#bgGrad)"/>

  <!-- Soft Floor Shadow -->
  <ellipse cx="300" cy="520" rx="150" ry="24" fill="#e2e8f0" opacity="0.6"/>
  <ellipse cx="300" cy="520" rx="100" ry="16" fill="#cbd5e1" opacity="0.4"/>

  <!-- Posture Figure Visual -->
  <g filter="url(#softShadow)">
    
    
  <!-- Chair Backrest -->
  <rect x="235" y="240" width="130" height="150" rx="20" fill="#94a3b8" opacity="0.3"/>
  <rect x="245" y="250" width="110" height="130" rx="16" fill="#cbd5e1" opacity="0.5"/>
  <!-- Chair Seat -->
  <rect x="215" y="385" width="170" height="24" rx="12" fill="#64748b" opacity="0.4"/>
  <!-- Chair Stem & Base -->
  <line x1="300" y1="405" x2="300" y2="480" stroke="#64748b" stroke-width="12" stroke-linecap="round"/>
  <line x1="240" y1="490" x2="360" y2="490" stroke="#475569" stroke-width="8" stroke-linecap="round"/>
  <circle cx="240" cy="495" r="6" fill="#334155"/>
  <circle cx="360" cy="495" r="6" fill="#334155"/>
  <circle cx="300" cy="495" r="6" fill="#334155"/>

    <path d="M 260 395 L 260 480 L 290 480" stroke="url(#pants)" stroke-width="32" stroke-linecap="round" fill="none"/>
    <path d="M 330 395 L 330 480 L 360 480" stroke="url(#pants)" stroke-width="32" stroke-linecap="round" fill="none"/>
    <ellipse cx="295" cy="485" rx="18" ry="8" fill="#f8fafc" stroke="#cbd5e1" stroke-width="2"/>
    <ellipse cx="365" cy="485" rx="18" ry="8" fill="#f8fafc" stroke="#cbd5e1" stroke-width="2"/>
    <path d="M 260 395 L 270 240 L 330 240 L 340 395 Z" fill="url(#shirt)"/>
    <!-- One Hand Gently Raised Near Ear in Listening Posture -->
    <path d="M 330 250 Q 380 220 350 180" stroke="url(#shirt)" stroke-width="18" stroke-linecap="round" fill="none"/>
    <circle cx="350" cy="180" r="10" fill="url(#skin)"/>
    <path d="M 270 250 L 250 330 L 270 380" stroke="url(#shirt)" stroke-width="18" stroke-linecap="round" fill="none"/>
    <circle cx="270" cy="380" r="10" fill="url(#skin)"/>
    <!-- Head Slightly Tilted, Eyes Closed Listening -->
    <g transform="rotate(10, 300, 210)">
      <line x1="300" y1="240" x2="300" y2="195" stroke="url(#skin)" stroke-width="20" stroke-linecap="round"/>
      <ellipse cx="300" cy="165" rx="28" ry="32" fill="url(#skin)"/>
      <path d="M 275 150 C 275 120 325 120 325 150 Z" fill="#451a03"/>
    </g>
    <!-- Ambient Sound Waves Radiating Toward Ear -->
    <path d="M 375 160 Q 385 175 375 190" stroke="#7c3aed" stroke-width="3" fill="none"/>
    <path d="M 390 150 Q 405 175 390 200" stroke="#7c3aed" stroke-width="3" fill="none"/>
    <path d="M 405 140 Q 425 175 405 210" stroke="#7c3aed" stroke-width="3" fill="none"/>
  
  </g>
</svg>